<?xml version="1.0" encoding="UTF-8"?>
<svg width="642px" height="119px" viewBox="0 0 642 119" version="1.1" xmlns="http://www.w3.org/2000/svg" xmlns:xlink="http://www.w3.org/1999/xlink">
    <!-- Generator: Sketch 51.2 (57519) - http://www.bohemiancoding.com/sketch -->
    <title>RESUME-Copy</title>
    <desc>Created with Sketch.</desc>
    <defs></defs>
    <g id="Page-1" stroke="none" stroke-width="1" fill="none" fill-rule="evenodd">
        <path d="M0.82,2.81195884 L54.2234218,2.81195884 C65.0313112,2.81195884 73.4814705,5.4609116 79.5741532,10.7588966 C85.666836,16.0568816 88.7131317,23.3150122 88.7131317,32.5335061 C88.7131317,39.4208866 87.1502495,45.4604989 84.0244384,50.6525242 C80.8986272,55.8445495 75.8921065,59.3941462 69.004726,61.3014208 L69.004726,61.6192983 C72.2894767,62.2550565 74.964919,63.3146376 77.0311332,64.7980734 C79.0973473,66.2815092 80.739698,68.0563075 81.9582346,70.1225217 C83.1767711,72.1887358 84.0774151,74.4933248 84.6601934,77.0363576 C85.2429718,79.5793903 85.6932937,82.2283431 86.0111728,84.9832953 C86.2230922,87.7382475 86.3820294,90.5461374 86.4879891,93.4070493 C86.5939488,96.2679612 86.8588441,99.0758512 87.2826829,101.830803 C87.7065217,104.585756 88.3157808,107.208219 89.1104786,109.698272 C89.9051763,112.188325 91.097205,114.386956 92.6866005,116.29423 L75.8390925,116.29423 C74.7794955,115.128673 74.0642782,113.539302 73.6934193,111.526067 C73.3225603,109.512833 73.0841546,107.261223 72.9781949,104.77117 C72.8722352,102.281117 72.7662771,99.6056751 72.6603174,96.7447632 C72.5543577,93.8838513 72.2364833,91.0759614 71.7066848,88.3210092 C71.2828461,85.566057 70.7530555,82.9435937 70.1172973,80.4535408 C69.4815391,77.9634878 68.474937,75.7913466 67.0974609,73.9370518 C65.7199848,72.0827571 63.918697,70.5993435 61.6935433,69.4867667 C59.4683896,68.3741898 56.5015625,67.8179097 52.792973,67.8179097 L15.9191818,67.8179097 L15.9191818,116.29423 L0.82,116.29423 L0.82,2.81195884 Z M47.3890553,55.1028093 C50.8857254,55.1028093 54.2234059,54.837914 57.4021969,54.3081155 C60.5809879,53.778317 63.3623883,52.7452255 65.7464815,51.2088098 C68.1305748,49.6723942 70.0378208,47.606211 71.4682767,45.0101984 C72.8987327,42.4141857 73.6139499,39.0500157 73.6139499,34.9175874 C73.6139499,29.1957636 72.0245783,24.5336067 68.8457873,20.9309769 C65.6669963,17.3283471 60.5280279,15.5270593 53.428728,15.5270593 L15.9191818,15.5270593 L15.9191818,55.1028093 L47.3890553,55.1028093 Z M109.693047,2.81195884 L188.049854,2.81195884 L188.049854,15.5270593 L124.792229,15.5270593 L124.792229,51.6061567 L183.758507,51.6061567 L183.758507,64.3212571 L124.792229,64.3212571 L124.792229,103.57913 L188.52667,103.57913 L188.52667,116.29423 L109.693047,116.29423 L109.693047,2.81195884 Z M272.446333,36.0301587 C271.598655,27.8712618 268.658318,21.9640971 263.625232,18.3084875 C258.592146,14.6528778 252.155191,12.8251004 244.314173,12.8251004 C241.135382,12.8251004 238.009618,13.1429748 234.936787,13.778733 C231.863955,14.4144912 229.135534,15.4740723 226.751441,16.9575081 C224.367347,18.4409439 222.460101,20.4276584 221.029645,22.9177114 C219.599189,25.4077643 218.883972,28.5070391 218.883972,32.2156286 C218.883972,35.7122987 219.917064,38.5466781 221.983278,40.718852 C224.049492,42.8910258 226.804403,44.6658242 230.248093,46.0433003 C233.691783,47.4207764 237.585744,48.5598261 241.930092,49.4604835 C246.274439,50.361141 250.698191,51.3412535 255.201478,52.4008505 C259.704765,53.4604475 264.128516,54.7054553 268.472864,56.1359112 C272.817212,57.5663672 276.711172,59.5001027 280.154862,61.9371758 C283.598553,64.3742489 286.353464,67.4470341 288.419678,71.1556236 C290.485892,74.8642131 291.518983,79.52637 291.518983,85.1422341 C291.518983,91.181937 290.168017,96.3473949 287.466045,100.638763 C284.764073,104.930131 281.293945,108.426748 277.055557,111.128721 C272.817169,113.830693 268.075543,115.790918 262.830538,117.009455 C257.585533,118.227991 252.367096,118.83725 247.175071,118.83725 C240.817489,118.83725 234.804366,118.042564 229.135522,116.453169 C223.466678,114.863773 218.486647,112.453226 214.195279,109.221455 C209.903911,105.989685 206.513252,101.857318 204.023199,96.8242326 C201.533146,91.7911468 200.288138,85.8310031 200.288138,78.9436226 L214.592626,78.9436226 C214.592626,83.7118091 215.519759,87.8176859 217.374054,91.2613761 C219.228349,94.7050664 221.665385,97.5394459 224.685237,99.7645996 C227.705088,101.989753 231.228195,103.632104 235.254664,104.691701 C239.281133,105.751298 243.413499,106.281089 247.651887,106.281089 C251.042597,106.281089 254.459746,105.963214 257.903437,105.327456 C261.347127,104.691698 264.446402,103.605627 267.201354,102.069212 C269.956306,100.532796 272.181426,98.4401232 273.876782,95.7911307 C275.572137,93.1421382 276.419802,89.7514786 276.419802,85.6190503 C276.419802,81.6985414 275.38671,78.5197981 273.320496,76.082725 C271.254282,73.6456519 268.499371,71.6589373 265.055681,70.1225217 C261.61199,68.586106 257.71803,67.3410982 253.373682,66.3874609 C249.029334,65.4338236 244.605583,64.4537111 240.102296,63.447094 C235.599009,62.4404768 231.175258,61.2749376 226.83091,59.9504414 C222.486562,58.6259451 218.592602,56.8776363 215.148911,54.7054624 C211.705221,52.5332886 208.95031,49.7253987 206.884096,46.2817084 C204.817882,42.8380182 203.78479,38.5202252 203.78479,33.3281999 C203.78479,27.6063761 204.95033,22.6528344 207.281443,18.4674262 C209.612556,14.2820181 212.711831,10.8383795 216.57936,8.13640714 C220.446889,5.43443479 224.844151,3.42123069 229.771277,2.09673444 C234.698403,0.772238191 239.757903,0.11 244.949928,0.11 C250.777712,0.11 256.181575,0.798727719 261.161681,2.17620382 C266.141787,3.55367992 270.512559,5.72582119 274.274128,8.69269278 C278.035698,11.6595644 281.002525,15.3945878 283.174699,19.897875 C285.346873,24.4011623 286.538901,29.7785364 286.750821,36.0301587 L272.446333,36.0301587 Z M400.392031,75.2880312 C400.392031,89.8045101 396.52456,100.691706 388.789502,107.949945 C381.054444,115.208185 370.0348,118.83725 355.730241,118.83725 C341.107802,118.83725 329.690816,115.367122 321.478939,108.426762 C313.267062,101.486401 309.161185,90.4402683 309.161185,75.2880312 L309.161185,2.81195884 L324.260367,2.81195884 L324.260367,75.2880312 C324.260367,85.4601624 326.962299,93.168615 332.366243,98.4136201 C337.770188,103.658625 345.558109,106.281089 355.730241,106.281089 C365.372573,106.281089 372.710172,103.658625 377.743258,98.4136201 C382.776344,93.168615 385.292849,85.4601624 385.292849,75.2880312 L385.292849,2.81195884 L400.392031,2.81195884 L400.392031,75.2880312 Z M424.868599,2.81195884 L445.530637,2.81195884 L481.291857,98.175212 L517.212016,2.81195884 L537.874054,2.81195884 L537.874054,116.29423 L523.569566,116.29423 L523.569566,21.8846095 L523.251689,21.8846095 L487.808346,116.29423 L474.934307,116.29423 L439.490965,21.8846095 L439.173087,21.8846095 L439.173087,116.29423 L424.868599,116.29423 L424.868599,2.81195884 Z M562.986377,2.81195884 L641.343184,2.81195884 L641.343184,15.5270593 L578.085559,15.5270593 L578.085559,51.6061567 L637.051837,51.6061567 L637.051837,64.3212571 L578.085559,64.3212571 L578.085559,103.57913 L641.82,103.57913 L641.82,116.29423 L562.986377,116.29423 L562.986377,2.81195884 Z" id="RESUME-Copy" fill="#FFFFFF" fill-rule="nonzero"></path>
    </g>
</svg>