<?xml version="1.0" encoding="UTF-8"?>
<svg width="641px" height="65px" viewBox="0 0 641 65" version="1.1" xmlns="http://www.w3.org/2000/svg" xmlns:xlink="http://www.w3.org/1999/xlink">
    <!-- Generator: Sketch 51.2 (57519) - http://www.bohemiancoding.com/sketch -->
    <title>Group 2</title>
    <desc>Created with Sketch.</desc>
    <defs></defs>
    <g id="Page-1" stroke="none" stroke-width="1" fill="none" fill-rule="evenodd">
        <g id="Group-2" fill="#FF0083">
            <path d="M4.26325641e-14,0 L70.7487758,0 C65.3198887,5.50977514 58.2090282,9.04374183 49.416,10.602 L76.56,61.41 L60.378,61.41 L33.93,11.646 L14.79,11.646 L14.79,61.41 L0,61.41 L0,7.10542736e-15 Z" id="Combined-Shape"></path>
            <path d="M115.884,0 L183.048,0 L183.048,5.208 L130.848,5.208 L130.848,48.186 L187.92,48.186 L187.92,61.41 L115.884,61.41 L115.884,7.10542736e-15 Z" id="Combined-Shape"></path>
            <path d="M254.824579,0 L288.801807,0 C292.522282,2.12129965 295.464006,4.20529621 297.627,6.252 C303.021027,11.3560255 305.718,18.8379507 305.718,28.698 C305.718,38.6740499 302.122036,47.0549661 294.93,53.841 C287.737964,60.6270339 277.936062,64.02 265.524,64.02 C237.56786,64.02 221.792018,49.1721485 218.196,19.476 L233.508,16.518 C235.132008,28.3500592 238.292977,36.962973 242.991,42.357 C247.689023,47.751027 255.373947,50.448 266.046,50.448 C274.282041,50.448 280.487979,48.4180203 284.664,44.358 C288.840021,40.2979797 290.928,35.3100296 290.928,29.394 C290.928,23.0139681 289.072019,18.0550177 285.36,14.517 C281.647981,10.9789823 273.296065,6.83202378 260.304,2.076 C258.398466,1.38461148 256.571993,0.692611633 254.82458,3.48355145e-09 Z" id="Combined-Shape"></path>
            <path d="M331.992,0 L346.782,0 L346.782,20.694 C346.782,40.5300992 356.351904,50.448 375.492,50.448 C385.004048,50.448 392.224975,47.9250252 397.155,42.879 C402.085025,37.8329748 404.55,30.5540476 404.55,21.042 L404.55,0 L419.166,0 L419.166,21.738 C419.166,35.542069 415.338038,46.039964 407.682,53.232 C400.025962,60.424036 389.296069,64.02 375.492,64.02 C361.803932,64.02 351.132038,60.424036 343.476,53.232 C335.819962,46.039964 331.992,35.542069 331.992,21.738 L331.992,0 Z" id="Combined-Shape"></path>
            <path d="M447.528,0 L460.752,0 L460.752,61.41 L447.528,61.41 L447.528,7.10542736e-15 Z M485.926,-7.10542736e-15 L488.592,8.514 L488.94,8.514 L491.606,0 L503.220292,0 L491.028,37.746 L486.504,37.746 L474.311708,-7.10542736e-15 L485.926,0 Z M530.004,0 L530.004,61.41 L516.78,61.41 L516.78,0 L530.004,0 Z" id="Combined-Shape"></path>
            <path d="M568.284,0 L635.448,0 L635.448,5.208 L583.248,5.208 L583.248,48.186 L640.32,48.186 L640.32,61.41 L568.284,61.41 L568.284,7.10542736e-15 Z" id="Combined-Shape"></path>
        </g>
    </g>
</svg>