<?xml version="1.0" encoding="UTF-8"?>
<svg width="631px" height="89px" viewBox="0 0 631 89" version="1.1" xmlns="http://www.w3.org/2000/svg" xmlns:xlink="http://www.w3.org/1999/xlink">
    <!-- Generator: Sketch 50 (54983) - http://www.bohemiancoding.com/sketch -->
    <title>Combined Shape</title>
    <desc>Created with Sketch.</desc>
    <defs></defs>
    <g id="Resume" stroke="none" stroke-width="1" fill="none" fill-rule="evenodd">
        <path d="M49.6687896,0 L64.8168589,0 C64.7454497,4.54668624 63.4565086,9.09330999 60.95,13.64 C58.3699871,18.3200234 54.380027,21.9199874 48.98,24.44 L48.98,26.6 C52.580018,27.200003 55.3999898,28.6399886 57.44,30.92 C59.4800102,33.2000114 60.5,36.439979 60.5,40.64 L60.5,86 L45.38,86 L45.38,43.88 C45.38,40.7599844 44.6600072,38.3600084 43.22,36.68 C41.7799928,34.9999916 39.260018,34.16 35.66,34.16 L0.42,34.16 L0.42,20.12 L24.5,20.12 C33.0200426,20.12 39.3499793,18.2900183 43.49,14.63 C47.3365204,11.229453 49.3961003,6.35282936 49.6687896,0 Z M100.08,0 L115.2,0 L115.2,15.8 L175.32,15.8 L175.32,29.84 L115.2,29.84 L115.2,71.96 L177.48,71.96 L177.48,86 L100.08,86 L100.08,0 Z M214.40819,0 L230.342908,0 C230.568149,0.515877102 230.820513,1.01254355 231.1,1.49 C232.540007,3.9500123 234.669986,6.0499913 237.49,7.79 C240.310014,9.5300087 243.819979,10.9699943 248.02,12.11 C252.220021,13.2500057 257.139972,14.2399958 262.78,15.08 C275.980066,17.1200102 285.699969,20.9899715 291.94,26.69 C298.180031,32.3900285 301.3,40.039952 301.3,49.64 L301.3,51.8 C301.3,57.200027 300.370009,62.1499775 298.51,66.65 C296.649991,71.1500225 293.890018,75.0199838 290.23,78.26 C286.569982,81.5000162 282.040027,84.019991 276.64,85.82 C271.239973,87.620009 265.000035,88.52 257.92,88.52 C249.87996,88.52 242.770031,87.3500117 236.59,85.01 C230.409969,82.6699883 225.250021,79.4300207 221.11,75.29 C216.969979,71.1499793 213.820011,66.2900279 211.66,60.71 C209.499989,55.1299721 208.42,49.040033 208.42,42.44 L208.42,37.04 L223.54,37.04 L223.54,41.36 C223.54,52.4000552 226.56997,60.6799724 232.63,66.2 C238.69003,71.7200276 247.119946,74.48 257.92,74.48 C267.280047,74.48 274.329976,72.4100207 279.07,68.27 C283.810024,64.1299793 286.18,58.6400342 286.18,51.8 L286.18,50.72 C286.18,44.119967 283.750024,39.0800174 278.89,35.6 C274.029976,32.1199826 266.140055,29.6000078 255.22,28.04 C248.859968,27.1999958 243.130026,25.9100087 238.03,24.17 C232.929974,22.4299913 228.580018,20.1500141 224.98,17.33 C221.379982,14.5099859 218.62001,11.1200198 216.7,7.16 C215.647685,4.98960127 214.88375,2.60294231 214.40819,0 Z M285.1,0 L300.22,0 L300.22,2.84 L285.1,2.84 L285.1,0 Z M329.36,0 L344.48,0 L344.48,43.52 C344.48,53.720051 346.849976,61.4299739 351.59,66.65 C356.330024,71.8700261 363.319954,74.48 372.56,74.48 C381.800046,74.48 388.789976,71.8700261 393.53,66.65 C398.270024,61.4299739 400.64,53.720051 400.64,43.52 L400.64,0 L415.76,0 L415.76,43.52 C415.76,58.1600732 411.920038,69.3199616 404.24,77 C396.559962,84.6800384 386.000067,88.52 372.56,88.52 C359.119933,88.52 348.560038,84.6800384 340.88,77 C333.199962,69.3199616 329.36,58.1600732 329.36,43.52 L329.36,0 Z M442.92,0 L456.96,0 L456.96,86 L442.92,86 L442.92,0 Z M463.865301,0 L477.382651,0 L488.64,79.52 L490.8,79.52 L502.057349,0 L515.574699,0 L503.4,86 L476.04,86 L463.865301,0 Z M522.48,0 L536.52,0 L536.52,86 L522.48,86 L522.48,0 Z M568.72,0 L583.84,0 L583.84,15.8 L630.96,15.8 L630.96,29.84 L583.84,29.84 L583.84,71.96 L630.96,71.96 L630.96,86 L568.72,86 L568.72,0 Z" id="Combined-Shape" fill="#000000"></path>
    </g>
</svg>